
<svg width="186" height="188" viewBox="0 0 186 188" fill="#ffffff" xmlns="http://www.w3.org/2000/svg">
<path d="M182.9 62.3549H124V3.11775C124 1.2471 122.76 0 120.9 0H65.1C63.24 0 62 1.2471 62 3.11775V62.3549H3.1C1.24 62.3549 0 63.602 0 65.4727V121.592C0 123.463 1.24 124.71 3.1 124.71H62V183.947C62 185.818 63.24 187.065 65.1 187.065H99.2V180.829H68.2V121.592C68.2 119.721 66.96 118.474 65.1 118.474H6.2V68.5904H65.1C66.96 68.5904 68.2 67.3433 68.2 65.4727V6.23549H117.8V65.4727C117.8 67.3433 119.04 68.5904 120.9 68.5904H179.8V121.592H186V65.4727C186 63.602 184.76 62.3549 182.9 62.3549Z" fill="white"/>
<path d="M80.6 12.471H74.4V18.7065H80.6V12.471Z" fill="white"/>
<path d="M18.6 74.8259H12.4V81.0614H18.6V74.8259Z" fill="white"/>
<path d="M173.6 74.8259H167.4V81.0614H173.6V74.8259Z" fill="white"/>
<path d="M18.6 106.003H12.4V112.239H18.6V106.003Z" fill="white"/>
<path d="M80.6 168.358H74.4V174.594H80.6V168.358Z" fill="white"/>
<path d="M111.6 12.471H105.4V18.7065H111.6V12.471Z" fill="white"/>
<path d="M136.4 49.8839H130.2V56.1194H136.4V49.8839Z" fill="white"/>
<path d="M148.8 49.8839H142.6V56.1194H148.8V49.8839Z" fill="white"/>
<path d="M161.2 49.8839H155V56.1194H161.2V49.8839Z" fill="white"/>
<path d="M55.8 49.8839H49.6V56.1194H55.8V49.8839Z" fill="white"/>
<path d="M43.4 49.8839H37.2V56.1194H43.4V49.8839Z" fill="white"/>
<path d="M31 49.8839H24.8V56.1194H31V49.8839Z" fill="white"/>
<path d="M55.8 130.945H49.6V137.181H55.8V130.945Z" fill="white"/>
<path d="M43.4 130.945H37.2V137.181H43.4V130.945Z" fill="white"/>
<path d="M55.8 143.416H49.6V149.652H55.8V143.416Z" fill="white"/>
<path d="M55.8 155.887H49.6V162.123H55.8V155.887Z" fill="white"/>
<path d="M43.4 143.416H37.2V149.652H43.4V143.416Z" fill="white"/>
<path d="M31 130.945H24.8V137.181H31V130.945Z" fill="white"/>
<path d="M55.8 37.4129H49.6V43.6484H55.8V37.4129Z" fill="white"/>
<path d="M55.8 24.942H49.6V31.1775H55.8V24.942Z" fill="white"/>
<path d="M43.4 37.4129H37.2V43.6484H43.4V37.4129Z" fill="white"/>
<path d="M148.8 37.4129H142.6V43.6484H148.8V37.4129Z" fill="white"/>
<path d="M136.4 37.4129H130.2V43.6484H136.4V37.4129Z" fill="white"/>
<path d="M136.4 24.942H130.2V31.1775H136.4V24.942Z" fill="white"/>
<path d="M143.53 144.352C143.53 147.582 141.794 150.375 139.19 151.859V188H130.51V151.859C127.906 150.331 126.17 147.582 126.17 144.352C126.17 139.55 130.076 135.622 134.85 135.622C139.624 135.622 143.53 139.55 143.53 144.352ZM134.85 118.163C120.484 118.163 108.81 129.904 108.81 144.352C108.81 151.946 112.065 158.799 117.229 163.557L123.392 157.359C119.79 154.172 117.49 149.546 117.49 144.352C117.49 134.705 125.258 126.892 134.85 126.892C144.441 126.892 152.21 134.705 152.21 144.352C152.21 149.546 149.91 154.172 146.307 157.359L152.47 163.557C157.635 158.799 160.89 151.946 160.89 144.352C160.89 129.904 149.215 118.163 134.85 118.163ZM134.85 100.703C110.893 100.703 91.4498 120.258 91.4498 144.352C91.4498 156.791 96.6578 167.965 104.947 175.953L111.11 169.755C104.383 163.382 100.13 154.347 100.13 144.352C100.13 125.103 115.71 109.433 134.85 109.433C153.989 109.433 169.57 125.103 169.57 144.352C169.57 154.347 165.317 163.382 158.59 169.755L164.752 175.953C173.042 167.965 178.25 156.791 178.25 144.352C178.25 120.258 158.807 100.703 134.85 100.703Z" fill="white"/>
</svg>
